<?xml version="1.0" encoding="UTF-8"?>
<!DOCTYPE svg PUBLIC "-//W3C//DTD SVG 1.1//EN" "http://www.w3.org/Graphics/SVG/1.1/DTD/svg11.dtd">
<svg xmlns="http://www.w3.org/2000/svg" version="1.1" width="688px" height="688px" style="shape-rendering:geometricPrecision; text-rendering:geometricPrecision; image-rendering:optimizeQuality; fill-rule:evenodd; clip-rule:evenodd" xmlns:xlink="http://www.w3.org/1999/xlink">
<g><path style="opacity:1" fill="#645842" d="M 319.5,55.5 C 439.208,49.6049 532.375,95.9382 599,194.5C 646.408,273.23 656.408,356.563 629,444.5C 593.948,549.218 522.782,614.718 415.5,641C 329.084,659.115 248.751,644.449 174.5,597C 109.361,550.63 69.5276,487.796 55,408.5C 37.1273,303.13 65.6273,212.63 140.5,137C 191.029,90.0873 250.696,62.9207 319.5,55.5 Z M 221.5,147.5 C 303.501,147.333 385.501,147.5 467.5,148C 481.408,148.907 490.241,156.074 494,169.5C 494.667,291.5 494.667,413.5 494,535.5C 490.631,547.535 482.798,554.702 470.5,557C 387.833,557.667 305.167,557.667 222.5,557C 211.791,555.291 204.291,549.458 200,539.5C 198.566,524.558 198.066,509.558 198.5,494.5C 211.171,494.667 223.838,494.5 236.5,494C 247.294,489.57 250.128,482.07 245,471.5C 243.039,468.865 240.539,467.031 237.5,466C 224.504,465.5 211.504,465.333 198.5,465.5C 198.5,446.833 198.5,428.167 198.5,409.5C 211.171,409.667 223.838,409.5 236.5,409C 247.294,404.57 250.128,397.07 245,386.5C 243.062,383.894 240.562,382.061 237.5,381C 224.504,380.5 211.504,380.333 198.5,380.5C 198.5,361.833 198.5,343.167 198.5,324.5C 211.504,324.667 224.504,324.5 237.5,324C 247.561,319.04 250.061,311.54 245,301.5C 243.062,298.894 240.562,297.061 237.5,296C 224.504,295.5 211.504,295.333 198.5,295.5C 198.5,276.833 198.5,258.167 198.5,239.5C 211.504,239.667 224.504,239.5 237.5,239C 247.561,234.04 250.061,226.54 245,216.5C 242.9,213.533 240.066,211.7 236.5,211C 223.838,210.5 211.171,210.333 198.5,210.5C 198.049,195.428 198.549,180.428 200,165.5C 204.363,155.956 211.53,149.956 221.5,147.5 Z"/></g>
<g><path style="opacity:1" fill="#645842" d="M 360.5,242.5 C 389.713,240.554 407.213,253.887 413,282.5C 416.302,306.271 409.135,326.104 391.5,342C 365.204,355.679 344.37,349.846 329,324.5C 318.681,303.303 319.014,282.303 330,261.5C 337.787,251.188 347.954,244.855 360.5,242.5 Z"/></g>
<g><path style="opacity:1" fill="#645842" d="M 359.5,362.5 C 398.287,361.162 426.12,377.829 443,412.5C 450.636,429.617 445.802,441.451 428.5,448C 387.833,448.667 347.167,448.667 306.5,448C 293.835,444.166 288.002,435.666 289,422.5C 300.129,387.865 323.629,367.865 359.5,362.5 Z"/></g>
</svg>
