<?xml version="1.0" encoding="UTF-8"?>
<!DOCTYPE svg PUBLIC "-//W3C//DTD SVG 1.1//EN" "http://www.w3.org/Graphics/SVG/1.1/DTD/svg11.dtd">
<svg xmlns="http://www.w3.org/2000/svg" version="1.1" width="688px" height="688px" style="shape-rendering:geometricPrecision; text-rendering:geometricPrecision; image-rendering:optimizeQuality; fill-rule:evenodd; clip-rule:evenodd" xmlns:xlink="http://www.w3.org/1999/xlink">
<g><path style="opacity:1" fill="#645842" d="M 311.5,58.5 C 429.503,51.2131 522.17,95.5464 589.5,191.5C 595.467,200.9 600.967,210.566 606,220.5C 630.124,269.99 639.791,322.324 635,377.5C 633.747,392.268 631.747,406.935 629,421.5C 603.072,516.081 545.572,583.581 456.5,624C 450.105,626.182 443.771,628.515 437.5,631C 425.752,634.457 417.919,630.624 414,619.5C 413.952,584.471 413.286,549.471 412,514.5C 409.3,501.763 403.466,490.763 394.5,481.5C 404.755,479.425 415.088,477.591 425.5,476C 452.265,470.083 475.765,457.916 496,439.5C 506.952,426.865 514.952,412.531 520,396.5C 527.918,370.4 530.251,343.733 527,316.5C 524.422,301.43 519.089,287.43 511,274.5C 508.035,269.57 504.369,265.237 500,261.5C 499.219,260.271 498.719,258.938 498.5,257.5C 507.21,231.87 506.21,206.537 495.5,181.5C 490.869,180.338 486.202,180.172 481.5,181C 466.188,184.989 451.521,190.656 437.5,198C 430.187,202.903 422.687,207.403 415,211.5C 366.517,198.186 318.017,198.186 269.5,211.5C 250.074,199.289 229.408,189.456 207.5,182C 201.548,180.67 195.548,180.337 189.5,181C 184.894,190.581 182.061,200.748 181,211.5C 179.405,227.152 180.905,242.485 185.5,257.5C 178.811,266.718 172.645,276.385 167,286.5C 157.991,307.548 154.658,329.548 157,352.5C 157.731,379.017 164.731,403.684 178,426.5C 194.081,447.809 214.914,462.643 240.5,471C 248.214,472.875 255.881,474.875 263.5,477C 272.286,478.013 280.952,479.513 289.5,481.5C 284.594,486.977 280.427,492.977 277,499.5C 274.055,507.099 271.555,514.766 269.5,522.5C 230.03,539.22 200.53,528.886 181,491.5C 172.352,480.92 161.519,473.42 148.5,469C 142.141,467.244 135.808,467.244 129.5,469C 127.549,472.24 128.216,475.24 131.5,478C 136.789,482.54 142.456,486.54 148.5,490C 154.431,496.682 159.764,503.849 164.5,511.5C 168.486,521.469 172.986,531.135 178,540.5C 190.422,554.791 206.255,562.291 225.5,563C 240.643,564.195 255.643,563.362 270.5,560.5C 270.667,580.503 270.5,600.503 270,620.5C 267.723,628.281 262.556,631.948 254.5,631.5C 246.356,630.292 238.356,628.126 230.5,625C 160.382,594.821 108.548,545.321 75,476.5C 49.4478,419.214 41.9478,359.38 52.5,297C 69.8386,216.903 111.839,153.57 178.5,107C 219.242,80.9009 263.575,64.7342 311.5,58.5 Z"/></g>
</svg>
