<?xml version="1.0" encoding="UTF-8"?>
<!DOCTYPE svg PUBLIC "-//W3C//DTD SVG 1.1//EN" "http://www.w3.org/Graphics/SVG/1.1/DTD/svg11.dtd">
<svg xmlns="http://www.w3.org/2000/svg" version="1.1" width="1024px" height="1024px" style="shape-rendering:geometricPrecision; text-rendering:geometricPrecision; image-rendering:optimizeQuality; fill-rule:evenodd; clip-rule:evenodd" xmlns:xlink="http://www.w3.org/1999/xlink">
<g><path fill="#655843" style="opacity:1" d="M 771.5,218.5 C 787.047,229.708 801.38,242.375 814.5,256.5C 816.177,258.54 817.844,260.54 819.5,262.5C 865.868,320.865 877.035,385.532 853,456.5C 849.214,466.073 844.88,475.407 840,484.5C 834.825,492.19 829.658,499.857 824.5,507.5C 823.167,508.167 822.167,509.167 821.5,510.5C 820.599,511.29 819.932,512.29 819.5,513.5C 818.833,513.5 818.5,513.833 818.5,514.5C 817.833,514.5 817.5,514.833 817.5,515.5C 816.662,515.842 816.328,516.508 816.5,517.5C 811.735,521.027 807.402,525.027 803.5,529.5C 802.5,529.833 801.833,530.5 801.5,531.5C 797.462,534.512 793.462,537.512 789.5,540.5C 783.463,544.513 777.463,548.513 771.5,552.5C 743.291,566.551 713.291,573.717 681.5,574C 687.98,583.636 694.98,592.803 702.5,601.5C 728.097,636.759 754.43,671.425 781.5,705.5C 782.167,706.833 783.167,707.833 784.5,708.5C 785.809,711.778 787.642,714.778 790,717.5C 793.792,721.928 797.292,725.928 800.5,729.5C 809.133,740.782 817.467,751.782 825.5,762.5C 829.512,767.872 833.512,773.205 837.5,778.5C 840.79,784.087 844.79,789.087 849.5,793.5C 857.227,803.933 864.727,814.6 872,825.5C 874.64,834.721 871.474,841.221 862.5,845C 833.54,846.626 804.54,846.959 775.5,846C 768.733,845.283 763.066,842.45 758.5,837.5C 758.573,835.973 757.906,834.973 756.5,834.5C 756.203,832.57 754.87,830.904 752.5,829.5C 750.984,826.467 748.984,823.8 746.5,821.5C 740.984,813.134 734.984,805.134 728.5,797.5C 726.975,794.437 724.975,791.77 722.5,789.5C 709.852,772.191 696.852,755.191 683.5,738.5C 673.878,724.878 663.878,711.545 653.5,698.5C 649.878,692.878 645.878,687.545 641.5,682.5C 640.876,680.246 639.543,678.579 637.5,677.5C 635.565,673.293 632.898,669.627 629.5,666.5C 621.878,655.545 613.878,644.878 605.5,634.5C 604.92,632.251 603.587,630.585 601.5,629.5C 593.984,618.467 585.984,607.8 577.5,597.5C 575.878,594.545 573.878,591.878 571.5,589.5C 563.384,578.211 555.05,567.044 546.5,556C 417.167,555.667 287.833,555.333 158.5,555C 153.328,554.414 148.994,552.247 145.5,548.5C 142.9,545.637 141.067,542.303 140,538.5C 139.333,523.5 139.333,508.5 140,493.5C 142.307,484.191 148.14,478.691 157.5,477C 331.506,476.177 505.506,476.344 679.5,477.5C 722.993,476.343 751.159,455.009 764,413.5C 769.3,392.195 768.3,371.195 761,350.5C 758.916,344.661 756.083,339.327 752.5,334.5C 751.226,331.24 749.56,328.24 747.5,325.5C 742.582,317.913 736.582,311.246 729.5,305.5C 711.171,289.167 689.838,278.334 665.5,273C 656.235,270.947 646.902,269.28 637.5,268C 594.186,266.438 550.853,265.604 507.5,265.5C 421.596,265.717 335.762,266.051 250,266.5C 244.169,265.972 238.336,265.472 232.5,265C 230.047,264.041 227.714,262.874 225.5,261.5C 222.324,258.489 220.157,254.822 219,250.5C 218.333,233.167 218.333,215.833 219,198.5C 220.721,189.779 225.887,184.279 234.5,182C 378.5,181.333 522.5,181.333 666.5,182C 704.513,185.682 739.513,197.848 771.5,218.5 Z"/></g>
<g><path fill="#655843" style="opacity:1" d="M 413.5,400.5 C 418.358,410.099 416.025,417.599 406.5,423C 376.5,423.667 346.5,423.667 316.5,423C 311.162,420.993 307.996,417.159 307,411.5C 306.333,381.167 306.333,350.833 307,320.5C 307.847,318.146 308.68,315.812 309.5,313.5C 312.558,310.646 316.225,308.813 320.5,308C 431.5,307.333 542.5,307.333 653.5,308C 666.592,311.697 671.092,319.863 667,332.5C 664.475,336.031 661.141,338.365 657,339.5C 565.374,339.495 473.541,339.495 381.5,339.5C 381.5,357.833 381.5,376.167 381.5,394.5C 388.841,394.334 396.174,394.5 403.5,395C 407.59,395.543 410.924,397.377 413.5,400.5 Z"/></g>
<g><path fill="#655843"  style="opacity:1" d="M 264.5,338.5 C 276.023,344.068 278.69,352.401 272.5,363.5C 270.549,365.622 268.215,367.122 265.5,368C 238.833,368.667 212.167,368.667 185.5,368C 177.129,364.091 173.963,357.591 176,348.5C 177.394,346.612 178.56,344.612 179.5,342.5C 181.714,341.126 184.047,339.959 186.5,339C 212.498,338.5 238.498,338.333 264.5,338.5 Z"/></g>
<g><path fill="#655843" style="opacity:1" d="M 269.5,393.5 C 277.694,401.06 278.361,409.06 271.5,417.5C 270.5,417.833 269.833,418.5 269.5,419.5C 267.232,421.465 264.565,422.632 261.5,423C 250.774,423.903 240.107,423.569 229.5,422C 218.705,416.063 216.205,407.563 222,396.5C 224.251,394.623 226.751,393.123 229.5,392C 243.025,389.535 256.358,390.035 269.5,393.5 Z"/></g>
<g><path fill="#655843" style="opacity:1" d="M 221.5,609.5 C 222.833,608.167 224.167,606.833 225.5,605.5C 228.054,604.394 230.721,603.561 233.5,603C 244.24,602.072 254.907,602.405 265.5,604C 275.829,609.825 278.162,617.991 272.5,628.5C 270.135,631.35 267.135,633.184 263.5,634C 251.762,634.935 240.095,634.602 228.5,633C 219.05,627.236 216.717,619.403 221.5,609.5 Z"/></g>
<g><path fill="#655843" style="opacity:1" d="M 319.5,602.5 C 347.502,602.333 375.502,602.5 403.5,603C 406.488,603.502 409.155,604.669 411.5,606.5C 418.744,615.761 417.744,623.928 408.5,631C 406.655,632.128 404.655,632.628 402.5,632.5C 395.167,632.5 387.833,632.5 380.5,632.5C 380.17,651.008 380.503,669.341 381.5,687.5C 443.999,688.333 506.665,688.833 569.5,689C 570.984,689.662 572.317,690.496 573.5,691.5C 576.178,694.873 578.844,698.206 581.5,701.5C 585.947,707.55 590.28,713.717 594.5,720C 502.5,720.667 410.5,720.667 318.5,720C 316.548,719.634 314.882,718.801 313.5,717.5C 309.833,714.85 307.667,711.183 307,706.5C 306.333,676.167 306.333,645.833 307,615.5C 308.682,608.653 312.849,604.32 319.5,602.5 Z"/></g>
<g><path fill="#655843" style="opacity:1" d="M 272.5,660.5 C 278.518,669.741 277.185,677.741 268.5,684.5C 267.078,684.709 265.745,685.209 264.5,686C 238.833,686.667 213.167,686.667 187.5,686C 185.846,685.392 184.179,684.892 182.5,684.5C 176.509,680.038 174.343,674.038 176,666.5C 176.926,664.308 178.093,662.308 179.5,660.5C 181.527,658.82 183.861,657.653 186.5,657C 213.167,656.333 239.833,656.333 266.5,657C 268.405,658.421 270.405,659.588 272.5,660.5 Z"/></g>
<g><path fill="#655843" style="opacity:1" d="M 676.5,827.5 C 677.774,830.26 678.774,833.093 679.5,836C 679.211,838.787 678.211,841.287 676.5,843.5C 674.394,844.783 672.06,845.616 669.5,846C 525.167,846.667 380.833,846.667 236.5,846C 232.346,845.586 228.679,844.086 225.5,841.5C 222.324,838.489 220.157,834.822 219,830.5C 218.333,812.833 218.333,795.167 219,777.5C 219.906,774.69 221.073,772.024 222.5,769.5C 226.252,765.52 230.919,763.353 236.5,763C 366.167,762.333 495.833,762.333 625.5,763C 640.605,781.382 655.105,800.216 669,819.5C 671.285,822.432 673.785,825.098 676.5,827.5 Z"/></g>
</svg>
