<?xml version="1.0" encoding="UTF-8"?>
<!DOCTYPE svg PUBLIC "-//W3C//DTD SVG 1.1//EN" "http://www.w3.org/Graphics/SVG/1.1/DTD/svg11.dtd">
<svg xmlns="http://www.w3.org/2000/svg" version="1.1" width="688px" height="688px" style="shape-rendering:geometricPrecision; text-rendering:geometricPrecision; image-rendering:optimizeQuality; fill-rule:evenodd; clip-rule:evenodd" xmlns:xlink="http://www.w3.org/1999/xlink">
<g><path style="opacity:1" fill="#645842" d="M 310.5,51.5 C 406.76,43.854 488.593,74.1874 556,142.5C 624.078,218.762 647.745,307.095 627,407.5C 599.445,522.389 528.612,595.222 414.5,626C 326.338,645.586 244.671,630.586 169.5,581C 108.311,535.845 70.4778,475.678 56,400.5C 36.6391,287.8 69.4724,193.633 154.5,118C 199.982,80.7647 251.982,58.598 310.5,51.5 Z M 168.5,202.5 C 284.5,202.333 400.5,202.5 516.5,203C 518.044,203.29 519.377,203.956 520.5,205C 461,262.5 401.5,320 342,377.5C 282.959,319.625 223.792,261.958 164.5,204.5C 165.949,203.828 167.282,203.161 168.5,202.5 Z M 147.5,227.5 C 187.668,265.501 227.334,304.001 266.5,343C 227.37,381.796 187.87,420.296 148,458.5C 147.5,381.501 147.333,304.501 147.5,227.5 Z M 535.5,227.5 C 536.666,304.332 536.832,381.332 536,458.5C 496.5,420 457,381.5 417.5,343C 457.338,304.995 496.671,266.495 535.5,227.5 Z M 286.5,362.5 C 302.269,376.767 317.602,391.6 332.5,407C 338.254,411.231 344.254,411.564 350.5,408C 366.138,393.362 381.471,378.362 396.5,363C 397.167,362.333 397.833,362.333 398.5,363C 439.471,402.304 480.138,441.971 520.5,482C 461.224,483.161 401.89,483.661 342.5,483.5C 283.639,483.497 224.805,483.164 166,482.5C 164.743,482.15 164.409,481.483 165,480.5C 205.699,441.3 246.199,401.966 286.5,362.5 Z"/></g>
</svg>
