<?xml version="1.0" encoding="UTF-8"?>
<!DOCTYPE svg PUBLIC "-//W3C//DTD SVG 1.1//EN" "http://www.w3.org/Graphics/SVG/1.1/DTD/svg11.dtd">
<svg xmlns="http://www.w3.org/2000/svg" version="1.1" width="688px" height="688px" style="shape-rendering:geometricPrecision; text-rendering:geometricPrecision; image-rendering:optimizeQuality; fill-rule:evenodd; clip-rule:evenodd" xmlns:xlink="http://www.w3.org/1999/xlink">
<g><path style="opacity:1" fill="#645842" d="M 341.5,53.5 C 456.36,53.8261 544.194,102.159 605,198.5C 659.288,298.138 658.622,397.471 603,496.5C 548.542,580.346 471.042,626.18 370.5,634C 295.812,638.419 228.145,619.085 167.5,576C 149.742,562.91 133.908,547.743 120,530.5C 70.3871,460.137 51.3871,382.137 63,296.5C 83.5724,195.936 140.072,123.436 232.5,79C 267.442,64.0125 303.776,55.5125 341.5,53.5 Z M 245.5,166.5 C 256.006,164.833 264.506,168.167 271,176.5C 281.261,202.948 290.927,229.615 300,256.5C 301.462,263.468 300.129,269.801 296,275.5C 283.333,288.833 270.667,302.167 258,315.5C 255.497,335.164 259.497,353.498 270,370.5C 287.143,398.978 310.643,420.478 340.5,435C 354.281,441.397 368.614,443.397 383.5,441C 396.833,428.333 410.167,415.667 423.5,403C 430.635,398.32 438.302,397.32 446.5,400C 471.987,408.94 497.321,418.273 522.5,428C 530.39,434.337 533.557,442.504 532,452.5C 524.476,472.543 516.143,492.21 507,511.5C 498.832,521.334 488.332,526.5 475.5,527C 404.325,529.606 339.325,510.939 280.5,471C 243.299,443.138 215.799,407.638 198,364.5C 181.665,325.656 172.498,285.156 170.5,243C 170.883,231.342 172.383,219.842 175,208.5C 178.344,200.821 183.511,194.654 190.5,190C 208.923,182.115 227.256,174.282 245.5,166.5 Z"/></g>
</svg>
